<svg xmlns="http://www.w3.org/2000/svg" viewBox="0 0 1200 60" width="100%" preserveAspectRatio="none">
  <defs>
    <linearGradient id="circuitGrad" x1="0%" y1="0%" x2="100%" y2="0%">
      <stop offset="0%" stop-color="#39d0d8" stop-opacity="0"/>
      <stop offset="50%" stop-color="#39d0d8" stop-opacity="0.7"/>
      <stop offset="100%" stop-color="#58a6ff" stop-opacity="0"/>
    </linearGradient>
  </defs>
  <rect width="1200" height="60" fill="#0d1117"/>
  <!-- Main trace -->
  <path d="M 0 30 L 120 30 L 140 15 L 300 15 L 320 30 L 540 30 L 560 45 L 640 45 L 660 30 L 880 30 L 900 15 L 1060 15 L 1080 30 L 1200 30" fill="none" stroke="#21262d" stroke-width="2"/>
  <!-- Glowing trace overlay -->
  <path d="M 0 30 L 120 30 L 140 15 L 300 15 L 320 30 L 540 30 L 560 45 L 640 45 L 660 30 L 880 30 L 900 15 L 1060 15 L 1080 30 L 1200 30" fill="none" stroke="url(#circuitGrad)" stroke-width="2"/>
  <!-- Nodes -->
  <circle cx="140" cy="15" r="3" fill="#39d0d8" opacity="0.8"/>
  <circle cx="320" cy="30" r="3" fill="#58a6ff" opacity="0.8"/>
  <circle cx="560" cy="45" r="3" fill="#a371f7" opacity="0.8"/>
  <circle cx="660" cy="30" r="3" fill="#39d0d8" opacity="0.8"/>
  <circle cx="900" cy="15" r="3" fill="#58a6ff" opacity="0.8"/>
  <circle cx="1080" cy="30" r="3" fill="#a371f7" opacity="0.8"/>
</svg>
