<svg xmlns="http://www.w3.org/2000/svg" viewBox="0 0 900 88" width="900" height="88">
  <defs>
    <!-- Small sakura flower (~14px span) -->
    <symbol id="dskS" overflow="visible">
      <path d="M0,0 C2.3,-2 3.9,-5.7 2.2,-9 Q1,-10.7 0,-10.2 Q-1,-10.7 -2.2,-9 C-3.9,-5.7 -2.3,-2 0,0Z" transform="rotate(0)"/>
      <path d="M0,0 C2.3,-2 3.9,-5.7 2.2,-9 Q1,-10.7 0,-10.2 Q-1,-10.7 -2.2,-9 C-3.9,-5.7 -2.3,-2 0,0Z" transform="rotate(72)"/>
      <path d="M0,0 C2.3,-2 3.9,-5.7 2.2,-9 Q1,-10.7 0,-10.2 Q-1,-10.7 -2.2,-9 C-3.9,-5.7 -2.3,-2 0,0Z" transform="rotate(144)"/>
      <path d="M0,0 C2.3,-2 3.9,-5.7 2.2,-9 Q1,-10.7 0,-10.2 Q-1,-10.7 -2.2,-9 C-3.9,-5.7 -2.3,-2 0,0Z" transform="rotate(216)"/>
      <path d="M0,0 C2.3,-2 3.9,-5.7 2.2,-9 Q1,-10.7 0,-10.2 Q-1,-10.7 -2.2,-9 C-3.9,-5.7 -2.3,-2 0,0Z" transform="rotate(288)"/>
      <circle cx="0" cy="0" r="1.5" fill="#fff8f5"/>
    </symbol>
    <!-- Medium sakura flower (~20px span) -->
    <symbol id="dskM" overflow="visible">
      <path d="M0,0 C3.5,-3 5.8,-8.5 3.3,-13.5 Q1.5,-16 0,-15.3 Q-1.5,-16 -3.3,-13.5 C-5.8,-8.5 -3.5,-3 0,0Z" transform="rotate(0)"/>
      <path d="M0,0 C3.5,-3 5.8,-8.5 3.3,-13.5 Q1.5,-16 0,-15.3 Q-1.5,-16 -3.3,-13.5 C-5.8,-8.5 -3.5,-3 0,0Z" transform="rotate(72)"/>
      <path d="M0,0 C3.5,-3 5.8,-8.5 3.3,-13.5 Q1.5,-16 0,-15.3 Q-1.5,-16 -3.3,-13.5 C-5.8,-8.5 -3.5,-3 0,0Z" transform="rotate(144)"/>
      <path d="M0,0 C3.5,-3 5.8,-8.5 3.3,-13.5 Q1.5,-16 0,-15.3 Q-1.5,-16 -3.3,-13.5 C-5.8,-8.5 -3.5,-3 0,0Z" transform="rotate(216)"/>
      <path d="M0,0 C3.5,-3 5.8,-8.5 3.3,-13.5 Q1.5,-16 0,-15.3 Q-1.5,-16 -3.3,-13.5 C-5.8,-8.5 -3.5,-3 0,0Z" transform="rotate(288)"/>
      <circle cx="0" cy="0" r="2" fill="#fff8f5"/>
    </symbol>
    <!-- Large sakura flower (~28px span) -->
    <symbol id="dskL" overflow="visible">
      <path d="M0,0 C4.5,-3.8 7.5,-11 4.3,-17.5 Q2,-21 0,-20 Q-2,-21 -4.3,-17.5 C-7.5,-11 -4.5,-3.8 0,0Z" transform="rotate(0)"/>
      <path d="M0,0 C4.5,-3.8 7.5,-11 4.3,-17.5 Q2,-21 0,-20 Q-2,-21 -4.3,-17.5 C-7.5,-11 -4.5,-3.8 0,0Z" transform="rotate(72)"/>
      <path d="M0,0 C4.5,-3.8 7.5,-11 4.3,-17.5 Q2,-21 0,-20 Q-2,-21 -4.3,-17.5 C-7.5,-11 -4.5,-3.8 0,0Z" transform="rotate(144)"/>
      <path d="M0,0 C4.5,-3.8 7.5,-11 4.3,-17.5 Q2,-21 0,-20 Q-2,-21 -4.3,-17.5 C-7.5,-11 -4.5,-3.8 0,0Z" transform="rotate(216)"/>
      <path d="M0,0 C4.5,-3.8 7.5,-11 4.3,-17.5 Q2,-21 0,-20 Q-2,-21 -4.3,-17.5 C-7.5,-11 -4.5,-3.8 0,0Z" transform="rotate(288)"/>
      <circle cx="0" cy="0" r="2.4" fill="#fff8f5"/>
    </symbol>
    <style>
      @keyframes brSway{0%,100%{transform:rotate(0deg)}50%{transform:rotate(.7deg)}}
      @keyframes pd1{0%{transform:translate(0,0) rotate(0deg);opacity:.44}100%{transform:translate(16px,28px) rotate(95deg);opacity:.07}}
      @keyframes pd2{0%{transform:translate(0,0) rotate(0deg);opacity:.38}100%{transform:translate(-11px,22px) rotate(-80deg);opacity:.06}}
      @keyframes pd3{0%{transform:translate(0,0) rotate(12deg);opacity:.34}100%{transform:translate(9px,25px) rotate(115deg);opacity:.05}}
      @keyframes bloom{0%,100%{opacity:.44}50%{opacity:.72}}
      .br{animation:brSway 11s ease-in-out infinite;transform-origin:0 44px}
      .d1{animation:pd1 14s ease-in-out infinite}
      .d2{animation:pd2 16s ease-in-out infinite 2.2s}
      .d3{animation:pd3 18s ease-in-out infinite 4.4s}
      .d1b{animation:pd1 15s ease-in-out infinite 6.6s}
      .d2b{animation:pd2 12s ease-in-out infinite 3.1s}
      .d3b{animation:pd3 19s ease-in-out infinite 1.5s}
      .d4{animation:pd1 13s ease-in-out infinite 8.8s}
      .d5{animation:pd2 17s ease-in-out infinite 5.5s}
      .d6{animation:pd3 15s ease-in-out infinite 7.7s}
      .d4b{animation:pd1 16s ease-in-out infinite 2.5s}
      .bl{animation:bloom 5.2s ease-in-out infinite}
      @media(prefers-reduced-motion:reduce){*{animation-duration:.01s!important;animation-iteration-count:1!important}}
    </style>
  </defs>

  <g class="br">
    <!-- Main branch -->
    <path d="M0 60Q80 53 165 46Q248 40 348 36Q450 33 552 36Q652 40 728 46Q808 52 866 56Q890 58 900 59"
          stroke="#3d2b1f" stroke-width="3.2" fill="none" stroke-linecap="round" opacity=".66"/>
    <path d="M0 60Q80 53 165 46Q248 40 348 36Q450 33 552 36Q652 40 728 46Q808 52 866 56Q890 58 900 59"
          stroke="#5a3d2b" stroke-width="1.4" fill="none" stroke-linecap="round" opacity=".28"/>

    <!-- Sub-branch 1: up-left from x≈145 -->
    <path d="M148 47Q140 34 126 20Q119 11 110 5" stroke="#3d2b1f" stroke-width="2.1" fill="none" stroke-linecap="round" opacity=".56"/>
    <path d="M126 20Q113 27 98 28" stroke="#3d2b1f" stroke-width="1.5" fill="none" stroke-linecap="round" opacity=".50"/>
    <path d="M126 20Q130 8 124 3" stroke="#3d2b1f" stroke-width="1.3" fill="none" stroke-linecap="round" opacity=".44"/>

    <!-- Sub-branch 2: down from x≈290 -->
    <path d="M292 38Q284 53 272 66Q265 74 256 83" stroke="#3d2b1f" stroke-width="1.9" fill="none" stroke-linecap="round" opacity=".52"/>
    <path d="M272 66Q282 72 290 78" stroke="#3d2b1f" stroke-width="1.3" fill="none" stroke-linecap="round" opacity=".46"/>

    <!-- Sub-branch 3: up from x≈452 -->
    <path d="M454 34Q449 20 438 10Q431 4 424 3" stroke="#3d2b1f" stroke-width="1.9" fill="none" stroke-linecap="round" opacity=".52"/>
    <path d="M438 10Q448 6 458 4" stroke="#3d2b1f" stroke-width="1.3" fill="none" stroke-linecap="round" opacity=".46"/>

    <!-- Sub-branch 4: down from x≈620 -->
    <path d="M622 41Q629 55 637 68Q642 76 647 85" stroke="#3d2b1f" stroke-width="1.9" fill="none" stroke-linecap="round" opacity=".50"/>
    <path d="M637 68Q626 74 620 81" stroke="#3d2b1f" stroke-width="1.3" fill="none" stroke-linecap="round" opacity=".44"/>

    <!-- Sub-branch 5: up from x≈782 -->
    <path d="M784 48Q778 35 768 23Q762 15 754 8" stroke="#3d2b1f" stroke-width="1.6" fill="none" stroke-linecap="round" opacity=".48"/>
    <path d="M768 23Q778 18 786 16" stroke="#3d2b1f" stroke-width="1.1" fill="none" stroke-linecap="round" opacity=".42"/>

    <!-- New mini sub-branch at x≈360: up -->
    <path d="M360 36Q358 29 356 22" stroke="#3d2b1f" stroke-width="1.2" fill="none" stroke-linecap="round" opacity=".48"/>

    <!-- New mini sub-branch at x≈650: down -->
    <path d="M650 40Q652 48 654 58" stroke="#3d2b1f" stroke-width="1.2" fill="none" stroke-linecap="round" opacity=".46"/>

    <!-- Sakura flowers: sub-branch 1 (upper-left) - ENHANCED -->
    <use href="#dskM" transform="translate(110,5)" fill="#ffc0d0" opacity=".60" class="bl"/>
    <use href="#dskS" transform="translate(98,28)" fill="#ffa0b4" opacity=".56"/>
    <use href="#dskM" transform="translate(122,14) rotate(20)" fill="#ffb6c8" opacity=".56"/>
    <use href="#dskS" transform="translate(102,14) rotate(-15)" fill="#ffc0d0" opacity=".50"/>
    <use href="#dskS" transform="translate(124,4) rotate(8)" fill="#ffa0b4" opacity=".48"/>
    <!-- Extra cluster flowers -->
    <use href="#dskS" transform="translate(115,10) rotate(25)" fill="#ffb6c8" opacity=".50"/>
    <use href="#dskM" transform="translate(105,20) rotate(-8)" fill="#ffc0d0" opacity=".52"/>
    <use href="#dskS" transform="translate(130,12) rotate(18)" fill="#ffa0b4" opacity=".46"/>
    <use href="#dskL" transform="translate(120,8) rotate(5)" fill="#ffb6c8" opacity=".54"/>

    <!-- Sakura flowers: sub-branch 2 (lower-left) - ENHANCED -->
    <use href="#dskM" transform="translate(256,83)" fill="#ffb6c8" opacity=".56" class="bl"/>
    <use href="#dskS" transform="translate(290,78)" fill="#ffa0b4" opacity=".50"/>
    <use href="#dskS" transform="translate(246,79) rotate(-10)" fill="#ffc0d0" opacity=".50"/>
    <use href="#dskS" transform="translate(265,74) rotate(14)" fill="#ffb6c8" opacity=".46"/>
    <!-- Extra cluster flowers -->
    <use href="#dskM" transform="translate(272,85) rotate(12)" fill="#ffa0b4" opacity=".52"/>
    <use href="#dskS" transform="translate(252,88) rotate(-18)" fill="#ffb6c8" opacity=".48"/>
    <use href="#dskL" transform="translate(280,82) rotate(6)" fill="#ffc0d0" opacity=".54"/>
    <use href="#dskS" transform="translate(268,80) rotate(16)" fill="#ffb6c8" opacity=".46"/>

    <!-- Sakura flowers: sub-branch 3 (upper-center) - ENHANCED -->
    <use href="#dskM" transform="translate(424,4)" fill="#ffb6c8" opacity=".56" class="bl"/>
    <use href="#dskS" transform="translate(458,5) rotate(18)" fill="#ffa0b4" opacity=".56"/>
    <use href="#dskS" transform="translate(413,7) rotate(-12)" fill="#ffc0d0" opacity=".50"/>
    <use href="#dskS" transform="translate(440,4) rotate(6)" fill="#ffb6c8" opacity=".48"/>
    <!-- Extra cluster flowers -->
    <use href="#dskL" transform="translate(435,8) rotate(-6)" fill="#ffc0d0" opacity=".54"/>
    <use href="#dskS" transform="translate(450,6) rotate(20)" fill="#ffb6c8" opacity=".50"/>
    <use href="#dskM" transform="translate(420,10) rotate(-14)" fill="#ffa0b4" opacity=".52"/>

    <!-- Sakura flowers: sub-branch 4 (lower-right) - ENHANCED -->
    <use href="#dskM" transform="translate(647,85)" fill="#ffb6c8" opacity=".56" class="bl"/>
    <use href="#dskS" transform="translate(620,81) rotate(-14)" fill="#ffa0b4" opacity=".50"/>
    <use href="#dskS" transform="translate(638,80) rotate(10)" fill="#ffc0d0" opacity=".48"/>
    <!-- Extra cluster flowers -->
    <use href="#dskL" transform="translate(635,88) rotate(8)" fill="#ffb6c8" opacity=".54"/>
    <use href="#dskS" transform="translate(654,82) rotate(-10)" fill="#ffc0d0" opacity=".50"/>
    <use href="#dskM" transform="translate(625,85) rotate(16)" fill="#ffa0b4" opacity=".52"/>

    <!-- Sakura flowers: sub-branch 5 (upper-right) - ENHANCED -->
    <use href="#dskM" transform="translate(754,8)" fill="#ffb6c8" opacity=".54"/>
    <use href="#dskS" transform="translate(768,20) rotate(-16)" fill="#ffa0b4" opacity=".50"/>
    <use href="#dskS" transform="translate(786,16) rotate(12)" fill="#ffc0d0" opacity=".46"/>
    <use href="#dskS" transform="translate(746,16) rotate(-8)" fill="#ffb6c8" opacity=".44"/>
    <!-- Extra cluster flowers -->
    <use href="#dskL" transform="translate(760,12) rotate(10)" fill="#ffc0d0" opacity=".54"/>
    <use href="#dskM" transform="translate(780,14) rotate(-12)" fill="#ffb6c8" opacity=".50"/>
    <use href="#dskS" transform="translate(755,22) rotate(14)" fill="#ffa0b4" opacity=".48"/>

    <!-- Flowers on new mini sub-branches -->
    <!-- Branch at x≈360 (up) -->
    <use href="#dskS" transform="translate(358,22)" fill="#ffb6c8" opacity=".56"/>
    <use href="#dskS" transform="translate(362,26) rotate(12)" fill="#ffa0b4" opacity=".50"/>

    <!-- Branch at x≈650 (down) -->
    <use href="#dskS" transform="translate(648,58) rotate(-8)" fill="#ffc0d0" opacity=".54"/>
    <use href="#dskS" transform="translate(656,62) rotate(10)" fill="#ffb6c8" opacity=".50"/>

    <!-- Scattered small blossoms along main branch -->
    <use href="#dskS" transform="translate(84,52) rotate(5)" fill="#ffb6c8" opacity=".38"/>
    <use href="#dskS" transform="translate(200,44) rotate(-10)" fill="#ffa0b4" opacity=".36"/>
    <use href="#dskS" transform="translate(345,36) rotate(14)" fill="#ffc0d0" opacity=".34"/>
    <use href="#dskS" transform="translate(498,34) rotate(-6)" fill="#ffb6c8" opacity=".32"/>
    <use href="#dskS" transform="translate(600,40) rotate(8)" fill="#ffa0b4" opacity=".34"/>
    <use href="#dskS" transform="translate(702,46) rotate(-12)" fill="#ffb6c8" opacity=".32"/>
    <use href="#dskS" transform="translate(824,54) rotate(4)" fill="#ffa0b4" opacity=".28"/>
    <use href="#dskS" transform="translate(892,59) rotate(-8)" fill="#ffc0d0" opacity=".24"/>

    <!-- Dense flower scatter in center (x: 350–600, y: 15–70) -->
    <use href="#dskS" transform="translate(380,28) rotate(0)" fill="#ffb6c8" opacity=".42"/>
    <use href="#dskS" transform="translate(420,35) rotate(30)" fill="#ffa0b4" opacity=".40"/>
    <use href="#dskS" transform="translate(460,18) rotate(60)" fill="#ffc0d0" opacity=".45"/>
    <use href="#dskS" transform="translate(510,45) rotate(90)" fill="#ffb6c8" opacity=".38"/>
    <use href="#dskS" transform="translate(550,25) rotate(120)" fill="#ffa0b4" opacity=".43"/>
    <use href="#dskS" transform="translate(590,52) rotate(150)" fill="#ffc0d0" opacity=".40"/>
    <use href="#dskS" transform="translate(470,60) rotate(210)" fill="#ffb6c8" opacity=".39"/>
    <use href="#dskS" transform="translate(540,15) rotate(270)" fill="#ffa0b4" opacity=".41"/>

    <!-- Floating petals near branch - ENHANCED -->
    <ellipse cx="172" cy="28" rx="2.6" ry="1.5" fill="#ffb6c8" opacity=".42" class="d1"/>
    <ellipse cx="332" cy="20" rx="2.2" ry="1.3" fill="#ffa0b4" opacity=".36" class="d2"/>
    <ellipse cx="474" cy="16" rx="2.6" ry="1.5" fill="#ffc0d0" opacity=".40" class="d3"/>
    <ellipse cx="610" cy="30" rx="2.2" ry="1.3" fill="#ffb6c8" opacity=".34" class="d1b"/>
    <ellipse cx="750" cy="22" rx="2.4" ry="1.4" fill="#ffa0b4" opacity=".32" class="d2b"/>
    <ellipse cx="860" cy="42" rx="2.2" ry="1.3" fill="#ffc0d0" opacity=".28" class="d3b"/>
    <!-- Extra petal animations -->
    <ellipse cx="420" cy="45" rx="2.4" ry="1.4" fill="#ffb6c8" opacity=".36" class="d4"/>
    <ellipse cx="520" cy="28" rx="2.2" ry="1.3" fill="#ffa0b4" opacity=".38" class="d5"/>
    <ellipse cx="680" cy="50" rx="2.6" ry="1.5" fill="#ffc0d0" opacity=".34" class="d6"/>
    <ellipse cx="380" cy="35" rx="2.2" ry="1.3" fill="#ffb6c8" opacity=".32" class="d4b"/>
  </g>
</svg>