<svg xmlns="http://www.w3.org/2000/svg" viewBox="0 0 1200 340" width="100%">
  <defs>
    <!-- Background gradient -->
    <linearGradient id="bgGrad" x1="0%" y1="0%" x2="100%" y2="100%">
      <stop offset="0%" stop-color="#0d1117"/>
      <stop offset="100%" stop-color="#161b22"/>
    </linearGradient>
    <!-- Glow effects -->
    <filter id="glow" x="-20%" y="-20%" width="140%" height="140%">
      <feGaussianBlur stdDeviation="3" result="blur"/>
      <feMerge>
        <feMergeNode in="blur"/>
        <feMergeNode in="SourceGraphic"/>
      </feMerge>
    </filter>
  </defs>

  <!-- Main background -->
  <rect width="1200" height="340" rx="12" fill="url(#bgGrad)"/>

  <!-- Window title bar -->
  <rect width="1200" height="36" rx="12" fill="#010409"/>
  <rect x="0" y="24" width="1200" height="12" fill="#010409"/>
  <circle cx="22" cy="18" r="6" fill="#ff5f56"/>
  <circle cx="42" cy="18" r="6" fill="#ffbd2e"/>
  <circle cx="62" cy="18" r="6" fill="#27c93f"/>

  <!-- Tabs -->
  <rect x="100" y="8" width="140" height="28" rx="6" fill="#161b22"/>
  <text x="115" y="26" font-family="monospace" font-size="11" fill="#8b949e">README.md</text>
  <rect x="248" y="8" width="120" height="28" rx="6" fill="#0d1117"/>
  <text x="263" y="26" font-family="monospace" font-size="11" fill="#c9d1d9">profile.ts</text>
  <rect x="376" y="8" width="120" height="28" rx="6" fill="#0d1117"/>
  <text x="391" y="26" font-family="monospace" font-size="11" fill="#c9d1d9">about.py</text>

  <!-- Sidebar file tree (left) -->
  <rect x="0" y="36" width="48" height="304" fill="#010409"/>
  <text x="16" y="64" font-family="monospace" font-size="14" fill="#7d8590">1</text>
  <text x="16" y="88" font-family="monospace" font-size="14" fill="#7d8590">2</text>
  <text x="16" y="112" font-family="monospace" font-size="14" fill="#7d8590">3</text>
  <text x="16" y="136" font-family="monospace" font-size="14" fill="#7d8590">4</text>
  <text x="16" y="160" font-family="monospace" font-size="14" fill="#7d8590">5</text>
  <text x="16" y="184" font-family="monospace" font-size="14" fill="#7d8590">6</text>
  <text x="16" y="208" font-family="monospace" font-size="14" fill="#7d8590">7</text>
  <text x="16" y="232" font-family="monospace" font-size="14" fill="#7d8590">8</text>
  <text x="16" y="256" font-family="monospace" font-size="14" fill="#7d8590">9</text>
  <text x="12" y="280" font-family="monospace" font-size="14" fill="#7d8590">10</text>
  <text x="12" y="304" font-family="monospace" font-size="14" fill="#7d8590">11</text>

  <!-- Code line 1: import -->
  <text x="72" y="68" font-family="monospace" font-size="15" fill="#ff7b72">import</text>
  <text x="142" y="68" font-family="monospace" font-size="15" fill="#c9d1d9"> { Engineer } </text>
  <text x="260" y="68" font-family="monospace" font-size="15" fill="#ff7b72">from</text>
  <text x="304" y="68" font-family="monospace" font-size="15" fill="#a5d6ff">"@universe/talent"</text>
  <text x="470" y="68" font-family="monospace" font-size="15" fill="#8b9490">// always learning</text>

  <!-- Code line 2: blank -->

  <!-- Code line 3: const profile -->
  <text x="72" y="116" font-family="monospace" font-size="15" fill="#ff7b72">const</text>
  <text x="114" y="116" font-family="monospace" font-size="15" fill="#79c0ff">profile</text>
  <text x="174" y="116" font-family="monospace" font-size="15" fill="#ff7b72">=</text>
  <text x="194" y="116" font-family="monospace" font-size="15" fill="#c9d1d9"> {</text>

  <!-- Code line 4: name -->
  <text x="104" y="140" font-family="monospace" font-size="15" fill="#79c0ff">name</text>
  <text x="144" y="140" font-family="monospace" font-size="15" fill="#c9d1d9">: </text>
  <text x="158" y="140" font-family="monospace" font-size="15" fill="#a5d6ff">"Patricio García Pérez Vela"</text>
  <text x="410" y="140" font-family="monospace" font-size="15" fill="#c9d1d9">,</text>

  <!-- Code line 5: role -->
  <text x="104" y="164" font-family="monospace" font-size="15" fill="#79c0ff">role</text>
  <text x="140" y="164" font-family="monospace" font-size="15" fill="#c9d1d9">: </text>
  <text x="154" y="164" font-family="monospace" font-size="15" fill="#a5d6ff">"Software Engineer"</text>
  <text x="340" y="164" font-family="monospace" font-size="15" fill="#c9d1d9">,</text>

  <!-- Code line 6: focus -->
  <text x="104" y="188" font-family="monospace" font-size="15" fill="#79c0ff">focus</text>
  <text x="152" y="188" font-family="monospace" font-size="15" fill="#c9d1d9">: [</text>
  <text x="172" y="188" font-family="monospace" font-size="15" fill="#a5d6ff">"AI Systems"</text>
  <text x="278" y="188" font-family="monospace" font-size="15" fill="#c9d1d9">, </text>
  <text x="294" y="188" font-family="monospace" font-size="15" fill="#a5d6ff">"Full-Stack"</text>
  <text x="398" y="188" font-family="monospace" font-size="15" fill="#c9d1d9">, </text>
  <text x="414" y="188" font-family="monospace" font-size="15" fill="#a5d6ff">"NLP"</text>
  <text x="466" y="188" font-family="monospace" font-size="15" fill="#c9d1d9">],</text>

  <!-- Code line 7: location -->
  <text x="104" y="212" font-family="monospace" font-size="15" fill="#79c0ff">location</text>
  <text x="176" y="212" font-family="monospace" font-size="15" fill="#c9d1d9">: </text>
  <text x="190" y="212" font-family="monospace" font-size="15" fill="#a5d6ff">"Guanajuato, México"</text>
  <text x="370" y="212" font-family="monospace" font-size="15" fill="#c9d1d9">,</text>

  <!-- Code line 8: status -->
  <text x="104" y="236" font-family="monospace" font-size="15" fill="#79c0ff">status</text>
  <text x="156" y="236" font-family="monospace" font-size="15" fill="#c9d1d9">: </text>
  <text x="170" y="236" font-family="monospace" font-size="15" fill="#a5d6ff">"Building sovereign AI"</text>

  <!-- Code line 9: closing brace -->
  <text x="72" y="260" font-family="monospace" font-size="15" fill="#c9d1d9">}</text>

  <!-- Code line 10: export -->
  <text x="72" y="284" font-family="monospace" font-size="15" fill="#ff7b72">export default</text>
  <text x="190" y="284" font-family="monospace" font-size="15" fill="#79c0ff">profile</text>

  <!-- Right side: decorative terminal/code block -->
  <rect x="800" y="56" width="360" height="240" rx="8" fill="#010409" stroke="#30363d" stroke-width="1"/>
  <rect x="800" y="56" width="360" height="28" rx="8" fill="#161b22"/>
  <rect x="800" y="76" width="360" height="8" fill="#161b22"/>
  <text x="820" y="74" font-family="monospace" font-size="10" fill="#8b949e">terminal — zsh</text>

  <!-- Terminal content -->
  <text x="820" y="112" font-family="monospace" font-size="13" fill="#7ee787">$ </text>
  <text x="838" y="112" font-family="monospace" font-size="13" fill="#c9d1d9">whoami</text>
  <text x="820" y="136" font-family="monospace" font-size="13" fill="#c9d1d9">p5patricio</text>

  <text x="820" y="168" font-family="monospace" font-size="13" fill="#7ee787">$ </text>
  <text x="838" y="168" font-family="monospace" font-size="13" fill="#c9d1d9">cat stack.txt</text>
  <text x="820" y="192" font-family="monospace" font-size="13" fill="#79c0ff">Python</text>
  <text x="870" y="192" font-family="monospace" font-size="13" fill="#c9d1d9"> · </text>
  <text x="890" y="192" font-family="monospace" font-size="13" fill="#79c0ff">TypeScript</text>
  <text x="820" y="212" font-family="monospace" font-size="13" fill="#79c0ff">Go</text>
  <text x="850" y="212" font-family="monospace" font-size="13" fill="#c9d1d9"> · </text>
  <text x="870" y="212" font-family="monospace" font-size="13" fill="#79c0ff">Node.js</text>
  <text x="820" y="232" font-family="monospace" font-size="13" fill="#79c0ff">FastAPI</text>
  <text x="870" y="232" font-family="monospace" font-size="13" fill="#c9d1d9"> · </text>
  <text x="890" y="232" font-family="monospace" font-size="13" fill="#79c0ff">Next.js</text>

  <text x="820" y="264" font-family="monospace" font-size="13" fill="#7ee787">$ </text>
  <text x="838" y="264" font-family="monospace" font-size="13" fill="#c9d1d9">echo </text>
  <text x="878" y="264" font-family="monospace" font-size="13" fill="#a5d6ff">"The end justifies the means."</text>

  <!-- Cursor blink -->
  <rect x="878" y="272" width="8" height="14" fill="#39d0d8">
    <animate attributeName="opacity" values="1;0;1" dur="1.2s" repeatCount="indefinite"/>
  </rect>

  <!-- Decorative circuit lines on bottom edge -->
  <path d="M 0 324 L 120 324 L 140 340 L 200 340" fill="none" stroke="#21262d" stroke-width="2"/>
  <path d="M 1200 324 L 1080 324 L 1060 340 L 1000 340" fill="none" stroke="#21262d" stroke-width="2"/>
  <circle cx="140" cy="340" r="2" fill="#39d0d8" opacity="0.6"/>
  <circle cx="1060" cy="340" r="2" fill="#39d0d8" opacity="0.6"/>
</svg>
