<svg xmlns="http://www.w3.org/2000/svg" viewBox="0 0 900 480" width="900" height="480">
  <defs>
    <linearGradient id="skyGrad" x1="0%" y1="0%" x2="0%" y2="100%">
      <stop offset="0%" stop-color="#060610"/>
      <stop offset="22%" stop-color="#0a0a1a"/>
      <stop offset="55%" stop-color="#12122a"/>
      <stop offset="80%" stop-color="#1a1a2e"/>
      <stop offset="100%" stop-color="#0f0f1a"/>
    </linearGradient>
    <radialGradient id="moonBody" cx="50%" cy="50%" r="50%">
      <stop offset="0%" stop-color="#fffafa"/>
      <stop offset="52%" stop-color="#ffe4e6"/>
      <stop offset="100%" stop-color="#fecdd3"/>
    </radialGradient>
    <radialGradient id="moonHalo1" cx="50%" cy="50%" r="50%">
      <stop offset="0%" stop-color="#fecdd3" stop-opacity="0.20"/>
      <stop offset="55%" stop-color="#fecdd3" stop-opacity="0.07"/>
      <stop offset="100%" stop-color="#fecdd3" stop-opacity="0"/>
    </radialGradient>
    <radialGradient id="moonHalo2" cx="50%" cy="50%" r="50%">
      <stop offset="0%" stop-color="#fecdd3" stop-opacity="0.09"/>
      <stop offset="100%" stop-color="#fecdd3" stop-opacity="0"/>
    </radialGradient>
    <radialGradient id="starGlow" cx="50%" cy="50%" r="50%">
      <stop offset="0%" stop-color="#ffffff" stop-opacity="0.9"/>
      <stop offset="100%" stop-color="#ffffff" stop-opacity="0"/>
    </radialGradient>
    <linearGradient id="mistGrad" x1="0%" y1="0%" x2="100%" y2="0%">
      <stop offset="0%" stop-color="#14142e" stop-opacity="0"/>
      <stop offset="12%" stop-color="#1a2040" stop-opacity="0.55"/>
      <stop offset="48%" stop-color="#1c2245" stop-opacity="0.38"/>
      <stop offset="88%" stop-color="#1a2040" stop-opacity="0.55"/>
      <stop offset="100%" stop-color="#14142e" stop-opacity="0"/>
    </linearGradient>
    <linearGradient id="waterGrad" x1="0%" y1="0%" x2="0%" y2="100%">
      <stop offset="0%" stop-color="#07070f"/>
      <stop offset="100%" stop-color="#040408"/>
    </linearGradient>

    <!-- ===== SVG FILTERS ===== -->
    <!-- Moon bloom: dramatic light emission effect -->
    <filter id="moonBloom" x="-180%" y="-180%" width="460%" height="460%" color-interpolation-filters="sRGB">
      <feGaussianBlur in="SourceGraphic" stdDeviation="14" result="blur1"/>
      <feGaussianBlur in="SourceGraphic" stdDeviation="6" result="blur2"/>
      <feColorMatrix in="blur1" type="matrix"
        values="1.2 0   0   0  0.72
                0   0.4 0   0  0.14
                0   0   0.5 0  0.22
                0   0   0   0.55 0" result="outerGlow"/>
      <feColorMatrix in="blur2" type="matrix"
        values="1.1 0   0   0  0.60
                0   0.6 0   0  0.22
                0   0   0.6 0  0.28
                0   0   0   0.75 0" result="innerGlow"/>
      <feMerge>
        <feMergeNode in="outerGlow"/>
        <feMergeNode in="innerGlow"/>
        <feMergeNode in="SourceGraphic"/>
      </feMerge>
    </filter>

    <!-- Blossom glow: soft pink luminance on cherry blossom clusters -->
    <filter id="blossomGlow" x="-45%" y="-45%" width="190%" height="190%" color-interpolation-filters="sRGB">
      <feGaussianBlur in="SourceGraphic" stdDeviation="5.5" result="blur"/>
      <feColorMatrix in="blur" type="matrix"
        values="1.0 0   0   0  0.50
                0   0.2 0   0  0.06
                0   0   0.3 0  0.12
                0   0   0   0.48 0" result="pinkGlow"/>
      <feMerge>
        <feMergeNode in="pinkGlow"/>
        <feMergeNode in="SourceGraphic"/>
      </feMerge>
    </filter>

    <!-- Atmospheric haze: distance blur for background trees -->
    <filter id="atmosHaze" x="-8%" y="-8%" width="116%" height="116%">
      <feGaussianBlur in="SourceGraphic" stdDeviation="1.8" result="haze"/>
      <feBlend in="SourceGraphic" in2="haze" mode="normal" result="blended"/>
      <feComposite in="blended" in2="SourceGraphic" operator="over"/>
    </filter>

    <!-- Water distortion: subtle surface shimmer -->
    <filter id="waterDistort" x="0" y="0" width="100%" height="100%">
      <feTurbulence type="fractalNoise" baseFrequency="0.02 0.06" numOctaves="2" seed="8" result="noise"/>
      <feDisplacementMap in="SourceGraphic" in2="noise" scale="2.5" xChannelSelector="R" yChannelSelector="G"/>
    </filter>

    <style>
      @keyframes tw1{0%,100%{opacity:.12}50%{opacity:.88}}
      @keyframes tw2{0%,100%{opacity:.42}50%{opacity:.10}}
      @keyframes tw3{0%,100%{opacity:.22}30%{opacity:.92}70%{opacity:.06}}
      @keyframes mPulse{0%,100%{opacity:.14;r:92}50%{opacity:.24;r:102}}
      @keyframes mGlow{0%,100%{opacity:.80}50%{opacity:.97}}
      @keyframes swL{0%,100%{transform:rotate(0deg)}50%{transform:rotate(1.5deg)}}
      @keyframes swR{0%,100%{transform:rotate(0deg)}50%{transform:rotate(-1.2deg)}}
      @keyframes swM{0%,100%{transform:rotate(0deg)}50%{transform:rotate(1deg)}}
      @keyframes swBL{0%,100%{transform:rotate(0deg)}50%{transform:rotate(0.55deg)}}
      @keyframes swBR{0%,100%{transform:rotate(0deg)}50%{transform:rotate(-0.48deg)}}
      @keyframes fl1{0%{transform:translate(0,0) rotate(0deg)}25%{transform:translate(18px,22px) rotate(48deg)}50%{transform:translate(42px,52px) rotate(96deg)}75%{transform:translate(62px,36px) rotate(142deg)}100%{transform:translate(92px,68px) rotate(188deg)}}
      @keyframes fl2{0%{transform:translate(0,0) rotate(0deg)}25%{transform:translate(-12px,28px) rotate(-33deg)}50%{transform:translate(12px,59px) rotate(23deg)}75%{transform:translate(-6px,44px) rotate(-50deg)}100%{transform:translate(22px,78px) rotate(68deg)}}
      @keyframes fl3{0%{transform:translate(0,0) rotate(12deg)}33%{transform:translate(28px,34px) rotate(-22deg)}66%{transform:translate(12px,66px) rotate(44deg)}100%{transform:translate(46px,88px) rotate(-12deg)}}
      @keyframes fl4{0%{transform:translate(0,0) rotate(-16deg)}50%{transform:translate(-22px,56px) rotate(28deg)}100%{transform:translate(18px,98px) rotate(-33deg)}}
      @keyframes fl5{0%{transform:translate(0,0) rotate(5deg)}40%{transform:translate(33px,38px) rotate(-43deg)}100%{transform:translate(-12px,82px) rotate(54deg)}}
      @keyframes fl6{0%{transform:translate(0,0) rotate(20deg)}30%{transform:translate(-18px,26px) rotate(-16deg)}70%{transform:translate(8px,56px) rotate(36deg)}100%{transform:translate(-5px,79px) rotate(-26deg)}}
      @keyframes sh1{0%,100%{opacity:.06}50%{opacity:.18}}
      @keyframes sh2{0%,100%{opacity:.04}50%{opacity:.13}}
      @keyframes mDrift{0%,50%{transform:translateX(0)}25%{transform:translateX(12px)}75%{transform:translateX(-8px)}}
      @keyframes fIn{0%{opacity:0}100%{opacity:.95}}
      @keyframes fInS{0%{opacity:0}100%{opacity:.68}}
      @keyframes ln1{0%,100%{opacity:.45}50%{opacity:.82}}
      @keyframes ln2{0%,100%{opacity:.35}50%{opacity:.72}}
      .s1{animation:tw1 3s ease-in-out infinite}
      .s2{animation:tw2 4.2s ease-in-out infinite}
      .s3{animation:tw3 5.1s ease-in-out infinite}
      .s1d{animation:tw1 3.6s ease-in-out infinite .5s}
      .s2d{animation:tw2 4.6s ease-in-out infinite 1.1s}
      .s3d{animation:tw3 3.9s ease-in-out infinite 1.6s}
      .s1e{animation:tw1 2.9s ease-in-out infinite 2.1s}
      .s2e{animation:tw2 3.7s ease-in-out infinite .9s}
      .s3e{animation:tw3 5.5s ease-in-out infinite 2.8s}
      .mh1{animation:mPulse 6.5s ease-in-out infinite}
      .mh2{animation:mPulse 8.5s ease-in-out infinite 1.2s}
      .mb{animation:mGlow 4.2s ease-in-out infinite}
      .lt{animation:swL 8s ease-in-out infinite;transform-origin:75px 480px}
      .rt{animation:swR 9s ease-in-out infinite;transform-origin:825px 480px}
      .mt{animation:swM 11.5s ease-in-out infinite;transform-origin:165px 480px}
      .blt{animation:swBL 13.5s ease-in-out infinite;transform-origin:235px 480px}
      .brt{animation:swBR 14.5s ease-in-out infinite;transform-origin:658px 480px}
      .p1{animation:fl1 12s ease-in-out infinite}
      .p2{animation:fl2 15s ease-in-out infinite}
      .p3{animation:fl3 18s ease-in-out infinite}
      .p4{animation:fl4 14s ease-in-out infinite}
      .p5{animation:fl5 16.5s ease-in-out infinite}
      .p6{animation:fl6 13.5s ease-in-out infinite}
      .p1d{animation:fl1 13.5s ease-in-out infinite 2.2s}
      .p2d{animation:fl2 16.5s ease-in-out infinite 3.3s}
      .p3d{animation:fl3 14.5s ease-in-out infinite 1.2s}
      .p4d{animation:fl4 17.5s ease-in-out infinite 4.2s}
      .p5d{animation:fl5 11.5s ease-in-out infinite 2.7s}
      .p6d{animation:fl6 19.5s ease-in-out infinite 3.8s}
      .p1e{animation:fl1 15.5s ease-in-out infinite 5.2s}
      .p2e{animation:fl2 12.5s ease-in-out infinite 6.1s}
      .p3e{animation:fl3 17s ease-in-out infinite 4.5s}
      .w1{animation:sh1 5.2s ease-in-out infinite}
      .w2{animation:sh2 7.3s ease-in-out infinite 1.1s}
      .md{animation:mDrift 13s ease-in-out infinite}
      .nt{animation:fIn 2.2s ease-out forwards;opacity:0}
      .st{animation:fInS 2.8s ease-out .9s forwards;opacity:0}
      .la{animation:ln1 4.2s ease-in-out infinite}
      .lb{animation:ln2 5.3s ease-in-out infinite 1.6s}
      .lc{animation:ln1 6.1s ease-in-out infinite .8s}
      @media(prefers-reduced-motion:reduce){*{animation-duration:.01s!important;animation-iteration-count:1!important}}
    </style>
  </defs>

  <!-- Sky -->
  <rect width="900" height="480" fill="url(#skyGrad)"/>

  <!-- Stars -->
  <circle cx="42" cy="14" r="1.0" fill="#fff" class="s1"/>
  <circle cx="86" cy="34" r=".7" fill="#fff" class="s2"/>
  <circle cx="128" cy="17" r="1.1" fill="#fff" class="s3"/>
  <circle cx="172" cy="7" r=".8" fill="#fff" class="s1d"/>
  <circle cx="208" cy="41" r=".6" fill="#fff" class="s2d"/>
  <circle cx="252" cy="21" r=".9" fill="#fff" class="s3d"/>
  <circle cx="294" cy="53" r=".5" fill="#fff" class="s1"/>
  <circle cx="332" cy="11" r=".7" fill="#fff" class="s2"/>
  <circle cx="372" cy="29" r="1.0" fill="#fff" class="s1e"/>
  <circle cx="412" cy="7" r=".6" fill="#fff" class="s2e"/>
  <circle cx="455" cy="43" r=".8" fill="#fff" class="s3"/>
  <circle cx="495" cy="17" r=".9" fill="#fff" class="s1d"/>
  <circle cx="532" cy="34" r=".5" fill="#fff" class="s2d"/>
  <circle cx="568" cy="11" r="1.0" fill="#fff" class="s3d"/>
  <circle cx="606" cy="51" r=".7" fill="#fff" class="s1"/>
  <circle cx="644" cy="24" r=".6" fill="#fff" class="s2e"/>
  <circle cx="682" cy="41" r=".8" fill="#fff" class="s3e"/>
  <circle cx="775" cy="17" r=".7" fill="#fff" class="s1d"/>
  <circle cx="816" cy="43" r=".5" fill="#fff" class="s2"/>
  <circle cx="854" cy="27" r=".6" fill="#fff" class="s3d"/>
  <circle cx="885" cy="50" r=".4" fill="#fff" class="s1e"/>
  <circle cx="66" cy="57" r=".4" fill="#fff" opacity=".28" class="s2e"/>
  <circle cx="238" cy="66" r=".4" fill="#fff" opacity=".28" class="s1"/>
  <circle cx="442" cy="60" r=".4" fill="#fff" opacity=".32" class="s3"/>
  <circle cx="712" cy="56" r=".4" fill="#fff" opacity=".28" class="s2d"/>
  <circle cx="868" cy="14" r=".4" fill="#fff" opacity=".24" class="s1e"/>
  <!-- Bright stars with glow -->
  <circle cx="148" cy="63" r="4.5" fill="url(#starGlow)"/>
  <circle cx="148" cy="63" r="1.3" fill="#fff" class="s3"/>
  <circle cx="322" cy="16" r="4.0" fill="url(#starGlow)"/>
  <circle cx="322" cy="16" r="1.1" fill="#fff" class="s1d"/>
  <circle cx="552" cy="21" r="4.2" fill="url(#starGlow)"/>
  <circle cx="552" cy="21" r="1.2" fill="#fff" class="s2"/>
  <circle cx="792" cy="19" r="3.5" fill="url(#starGlow)"/>
  <circle cx="792" cy="19" r=".9" fill="#fff" class="s3d"/>

  <!-- Moon halos + body — moonBloom filter for dramatic light emission -->
  <g filter="url(#moonBloom)">
    <circle cx="738" cy="86" r="105" fill="url(#moonHalo2)" class="mh2"/>
    <circle cx="738" cy="86" r="78" fill="url(#moonHalo1)" class="mh1"/>
    <circle cx="738" cy="86" r="39" fill="url(#moonBody)" class="mb"/>
    <circle cx="738" cy="86" r="42" fill="none" stroke="#fecdd3" stroke-width=".5" opacity=".18"/>
    <circle cx="726" cy="78" r="4.5" fill="#fecdd3" opacity=".09"/>
    <circle cx="748" cy="94" r="3.5" fill="#fecdd3" opacity=".07"/>
    <circle cx="735" cy="99" r="2.5" fill="#fecdd3" opacity=".08"/>
    <circle cx="752" cy="74" r="3.0" fill="#fecdd3" opacity=".06"/>
    <circle cx="740" cy="70" r="2.0" fill="#fecdd3" opacity=".07"/>
  </g>

  <!-- Mountains — 4 layers -->
  <path d="M0 268Q42 232 95 250Q148 218 208 242Q268 210 338 235Q398 203 468 228Q532 198 604 222Q664 192 736 218Q796 188 858 212Q882 202 900 220L900 315H0Z" fill="#080815" opacity=".82"/>
  <path d="M0 282Q72 250 158 270Q238 240 325 262Q405 234 495 258Q578 230 668 255Q748 230 834 250Q872 240 900 254L900 315H0Z" fill="#0d0d1e" opacity=".68"/>
  <path d="M0 295Q92 272 195 288Q288 264 390 282Q484 260 582 278Q682 258 778 274Q842 262 900 275L900 315H0Z" fill="#101024" opacity=".52"/>
  <path d="M0 308Q122 290 255 304Q375 284 505 300Q628 282 758 297Q832 287 900 294L900 315H0Z" fill="#15152c" opacity=".42"/>

  <!-- Pagoda silhouette (far background) -->
  <g opacity="0.09">
    <rect x="671" y="238" width="30" height="13" rx="1.5" fill="#fecdd3"/>
    <rect x="675" y="227" width="22" height="11" rx="1.5" fill="#fecdd3"/>
    <rect x="679" y="217" width="14" height="10" rx="1" fill="#fecdd3"/>
    <line x1="686" y1="217" x2="686" y2="204" stroke="#fecdd3" stroke-width="1.6"/>
    <circle cx="686" cy="202" r="2" fill="#fecdd3"/>
    <path d="M668 251Q672 245 686 242Q700 245 704 251" stroke="#fecdd3" stroke-width="1.1" fill="none" stroke-linecap="round"/>
    <path d="M672 227Q676 222 686 220Q696 222 700 227" stroke="#fecdd3" stroke-width=".9" fill="none" stroke-linecap="round"/>
    <path d="M676 217Q679 212 686 211Q693 212 696 217" stroke="#fecdd3" stroke-width=".7" fill="none" stroke-linecap="round"/>
  </g>

  <!-- Bamboo grove (far left) -->
  <g opacity="0.09">
    <line x1="14" y1="480" x2="11" y2="308" stroke="#2a4a35" stroke-width="4.5" stroke-linecap="round"/>
    <line x1="24" y1="480" x2="27" y2="292" stroke="#2a4a35" stroke-width="5" stroke-linecap="round"/>
    <line x1="35" y1="480" x2="32" y2="302" stroke="#2a4a35" stroke-width="4.5" stroke-linecap="round"/>
    <line x1="45" y1="480" x2="48" y2="314" stroke="#2a4a35" stroke-width="4" stroke-linecap="round"/>
    <circle cx="12" cy="358" r="3" fill="#1e3d2a"/>
    <circle cx="12" cy="328" r="3" fill="#1e3d2a"/>
    <circle cx="26" cy="342" r="3.5" fill="#1e3d2a"/>
    <circle cx="26" cy="312" r="3.5" fill="#1e3d2a"/>
    <circle cx="33" cy="348" r="3" fill="#1e3d2a"/>
    <path d="M11 308Q0 297 3 285" stroke="#2a4a35" stroke-width="1.8" fill="none"/>
    <path d="M11 308Q18 295 13 282" stroke="#2a4a35" stroke-width="1.8" fill="none"/>
    <path d="M27 292Q15 282 18 268" stroke="#2a4a35" stroke-width="1.8" fill="none"/>
    <path d="M27 292Q36 280 30 266" stroke="#2a4a35" stroke-width="1.8" fill="none"/>
  </g>

  <!-- === FAR BACKGROUND TREES === -->
  <!-- BG Left (x=235) — atmosHaze for depth -->
  <g opacity="0.21" class="blt" filter="url(#atmosHaze)">
    <path d="M235 480Q233 432 231 398Q227 366 233 341Q237 320 231 300Q229 285 235 268" stroke="#3d2b1f" stroke-width="6" fill="none" stroke-linecap="round"/>
    <path d="M233 328Q215 308 200 294" stroke="#3d2b1f" stroke-width="3.2" fill="none" stroke-linecap="round"/>
    <path d="M200 294Q186 282 176 274" stroke="#3d2b1f" stroke-width="1.9" fill="none" stroke-linecap="round"/>
    <path d="M231 306Q248 288 260 276" stroke="#3d2b1f" stroke-width="2.7" fill="none" stroke-linecap="round"/>
    <path d="M233 286Q212 264 198 251" stroke="#3d2b1f" stroke-width="2.3" fill="none" stroke-linecap="round"/>
    <path d="M235 276Q252 256 264 244" stroke="#3d2b1f" stroke-width="2.1" fill="none" stroke-linecap="round"/>
    <circle cx="235" cy="266" r="7" fill="#c4a0a8" opacity=".52"/>
    <circle cx="227" cy="258" r="6" fill="#d0abb3" opacity=".56"/>
    <circle cx="243" cy="258" r="7" fill="#c4a0a8" opacity=".50"/>
    <circle cx="200" cy="292" r="5" fill="#d0abb3" opacity=".50"/>
    <circle cx="192" cy="284" r="6" fill="#c4a0a8" opacity=".45"/>
    <circle cx="260" cy="274" r="5" fill="#d0abb3" opacity=".48"/>
    <circle cx="264" cy="242" r="4" fill="#c4a0a8" opacity=".44"/>
    <circle cx="176" cy="271" r="4" fill="#d0abb3" opacity=".40"/>
    <circle cx="220" cy="252" r="5" fill="#c4a0a8" opacity=".44"/>
    <circle cx="249" cy="251" r="4" fill="#d0abb3" opacity=".40"/>
    <circle cx="229" cy="244" r="5" fill="#c4a0a8" opacity=".48"/>
    <circle cx="240" cy="238" r="4" fill="#d0abb3" opacity=".44"/>
  </g>

  <!-- BG Right (x=658) — atmosHaze for depth -->
  <g opacity="0.21" class="brt" filter="url(#atmosHaze)">
    <path d="M658 480Q656 432 654 398Q650 365 656 340Q660 319 654 299Q652 284 658 266" stroke="#3d2b1f" stroke-width="6" fill="none" stroke-linecap="round"/>
    <path d="M656 326Q638 306 623 292" stroke="#3d2b1f" stroke-width="3.2" fill="none" stroke-linecap="round"/>
    <path d="M623 292Q609 280 599 272" stroke="#3d2b1f" stroke-width="1.9" fill="none" stroke-linecap="round"/>
    <path d="M654 304Q671 286 683 274" stroke="#3d2b1f" stroke-width="2.7" fill="none" stroke-linecap="round"/>
    <path d="M656 284Q635 262 621 249" stroke="#3d2b1f" stroke-width="2.3" fill="none" stroke-linecap="round"/>
    <path d="M658 274Q675 254 687 242" stroke="#3d2b1f" stroke-width="2.1" fill="none" stroke-linecap="round"/>
    <circle cx="658" cy="264" r="7" fill="#c4a0a8" opacity=".52"/>
    <circle cx="650" cy="256" r="6" fill="#d0abb3" opacity=".56"/>
    <circle cx="666" cy="256" r="7" fill="#c4a0a8" opacity=".50"/>
    <circle cx="623" cy="290" r="5" fill="#d0abb3" opacity=".50"/>
    <circle cx="615" cy="282" r="6" fill="#c4a0a8" opacity=".45"/>
    <circle cx="683" cy="272" r="5" fill="#d0abb3" opacity=".48"/>
    <circle cx="687" cy="240" r="4" fill="#c4a0a8" opacity=".44"/>
    <circle cx="599" cy="269" r="4" fill="#d0abb3" opacity=".40"/>
    <circle cx="643" cy="249" r="5" fill="#c4a0a8" opacity=".44"/>
    <circle cx="672" cy="249" r="4" fill="#d0abb3" opacity=".40"/>
    <circle cx="652" cy="242" r="5" fill="#c4a0a8" opacity=".48"/>
    <circle cx="663" cy="236" r="4" fill="#d0abb3" opacity=".44"/>
  </g>

  <!-- Mist band 1 (between bg and mid planes) -->
  <rect x="0" y="265" width="900" height="32" fill="url(#mistGrad)" opacity=".58" class="md"/>
  <!-- Mist band 2 (between mid and fg planes) -->
  <rect x="0" y="300" width="900" height="24" fill="url(#mistGrad)" opacity=".42"/>

  <!-- === MIDDLE TREE (x=165) — blossomGlow for mid-plane atmosphere === -->
  <g opacity="0.52" class="mt" filter="url(#blossomGlow)">
    <path d="M165 480Q163 418 161 372Q157 336 163 304Q167 280 161 256Q159 239 165 218Q163 202 168 186" stroke="#2d1f14" stroke-width="10" fill="none" stroke-linecap="round"/>
    <path d="M165 480Q167 418 163 372Q159 336 165 304Q169 280 163 256Q161 239 167 218" stroke="#3d2b1f" stroke-width="6.5" fill="none" stroke-linecap="round"/>
    <path d="M163 312Q136 287 115 272" stroke="#3d2b1f" stroke-width="5" fill="none" stroke-linecap="round"/>
    <path d="M115 272Q96 258 82 248" stroke="#3d2b1f" stroke-width="3.2" fill="none" stroke-linecap="round"/>
    <path d="M82 248Q68 239 57 232" stroke="#3d2b1f" stroke-width="2.2" fill="none" stroke-linecap="round"/>
    <path d="M161 288Q183 264 202 248" stroke="#3d2b1f" stroke-width="4.2" fill="none" stroke-linecap="round"/>
    <path d="M202 248Q218 236 230 226" stroke="#3d2b1f" stroke-width="2.6" fill="none" stroke-linecap="round"/>
    <path d="M163 265Q139 241 121 226" stroke="#3d2b1f" stroke-width="3.7" fill="none" stroke-linecap="round"/>
    <path d="M121 226Q106 212 94 202" stroke="#3d2b1f" stroke-width="2.3" fill="none" stroke-linecap="round"/>
    <path d="M165 246Q186 223 204 208" stroke="#3d2b1f" stroke-width="3.2" fill="none" stroke-linecap="round"/>
    <path d="M165 228Q144 205 131 190" stroke="#3d2b1f" stroke-width="3" fill="none" stroke-linecap="round"/>
    <path d="M131 190Q118 176 108 164" stroke="#3d2b1f" stroke-width="1.9" fill="none" stroke-linecap="round"/>
    <path d="M167 212Q184 190 196 176" stroke="#3d2b1f" stroke-width="2.7" fill="none" stroke-linecap="round"/>
    <circle cx="165" cy="183" r="9" fill="#ffa0b4" opacity=".56"/>
    <circle cx="155" cy="175" r="8" fill="#ffb6c8" opacity=".62"/>
    <circle cx="175" cy="174" r="9" fill="#ff8da6" opacity=".52"/>
    <circle cx="167" cy="169" r="7" fill="#ffc0d0" opacity=".56"/>
    <circle cx="146" cy="169" r="6" fill="#ffa0b4" opacity=".52"/>
    <circle cx="183" cy="167" r="7" fill="#ffb6c8" opacity=".52"/>
    <circle cx="108" cy="162" r="7" fill="#ffa0b4" opacity=".52"/>
    <circle cx="100" cy="154" r="8" fill="#ffb6c8" opacity=".56"/>
    <circle cx="116" cy="154" r="6" fill="#ff8da6" opacity=".52"/>
    <circle cx="92" cy="148" r="6" fill="#ffc0d0" opacity=".48"/>
    <circle cx="196" cy="174" r="6" fill="#ffa0b4" opacity=".52"/>
    <circle cx="204" cy="166" r="7" fill="#ffb6c8" opacity=".48"/>
    <circle cx="82" cy="246" r="7" fill="#ffa0b4" opacity=".52"/>
    <circle cx="74" cy="238" r="6" fill="#ffb6c8" opacity=".52"/>
    <circle cx="90" cy="240" r="5" fill="#ff8da6" opacity=".48"/>
    <circle cx="57" cy="230" r="6" fill="#ffc0d0" opacity=".48"/>
    <circle cx="230" cy="224" r="6" fill="#ffa0b4" opacity=".48"/>
    <circle cx="220" cy="216" r="7" fill="#ffb6c8" opacity=".48"/>
    <circle cx="131" cy="188" r="6" fill="#ffa0b4" opacity=".48"/>
    <circle cx="122" cy="180" r="7" fill="#ffb6c8" opacity=".44"/>
    <circle cx="108" cy="170" r="5" fill="#ffc0d0" opacity=".44"/>
  </g>

  <!-- === LEFT FOREGROUND TREE (x=75) — blossomGlow for pink night luminance === -->
  <g class="lt" filter="url(#blossomGlow)">
    <path d="M75 480Q73 408 71 355Q67 316 73 282Q77 256 71 228Q69 207 75 184Q73 166 79 148" stroke="#2d1f14" stroke-width="14" fill="none" stroke-linecap="round"/>
    <path d="M75 480Q77 408 73 355Q69 316 75 282Q79 256 73 228Q71 207 77 184" stroke="#3d2b1f" stroke-width="9.5" fill="none" stroke-linecap="round"/>
    <!-- Branch low-left -->
    <path d="M73 292Q47 268 23 251" stroke="#3d2b1f" stroke-width="7.5" fill="none" stroke-linecap="round"/>
    <path d="M23 251Q6 238 -2 228" stroke="#3d2b1f" stroke-width="4.5" fill="none" stroke-linecap="round"/>
    <path d="M23 251Q15 234 9 218" stroke="#3d2b1f" stroke-width="3.2" fill="none" stroke-linecap="round"/>
    <path d="M9 218Q3 206 -1 194" stroke="#3d2b1f" stroke-width="2.1" fill="none" stroke-linecap="round"/>
    <!-- Branch low-right -->
    <path d="M73 272Q101 248 124 234" stroke="#3d2b1f" stroke-width="5.8" fill="none" stroke-linecap="round"/>
    <path d="M124 234Q143 222 155 213" stroke="#3d2b1f" stroke-width="3.7" fill="none" stroke-linecap="round"/>
    <path d="M155 213Q167 205 175 198" stroke="#3d2b1f" stroke-width="2.3" fill="none" stroke-linecap="round"/>
    <!-- Branch mid-left -->
    <path d="M71 248Q43 223 20 207" stroke="#3d2b1f" stroke-width="5.3" fill="none" stroke-linecap="round"/>
    <path d="M20 207Q2 193 -6 183" stroke="#3d2b1f" stroke-width="3.2" fill="none" stroke-linecap="round"/>
    <path d="M20 207Q12 190 6 175" stroke="#3d2b1f" stroke-width="2.6" fill="none" stroke-linecap="round"/>
    <!-- Branch mid-right -->
    <path d="M73 234Q99 210 120 195" stroke="#3d2b1f" stroke-width="4.8" fill="none" stroke-linecap="round"/>
    <path d="M120 195Q138 183 148 172" stroke="#3d2b1f" stroke-width="3.1" fill="none" stroke-linecap="round"/>
    <path d="M148 172Q161 162 169 154" stroke="#3d2b1f" stroke-width="2.1" fill="none" stroke-linecap="round"/>
    <!-- Branch upper-left -->
    <path d="M73 214Q49 188 30 172" stroke="#3d2b1f" stroke-width="4.2" fill="none" stroke-linecap="round"/>
    <path d="M30 172Q16 158 6 146" stroke="#3d2b1f" stroke-width="2.7" fill="none" stroke-linecap="round"/>
    <path d="M6 146Q-2 136 -7 126" stroke="#3d2b1f" stroke-width="1.9" fill="none" stroke-linecap="round"/>
    <!-- Branch upper-right -->
    <path d="M75 200Q99 175 117 159" stroke="#3d2b1f" stroke-width="4" fill="none" stroke-linecap="round"/>
    <path d="M117 159Q132 146 142 136" stroke="#3d2b1f" stroke-width="2.6" fill="none" stroke-linecap="round"/>
    <!-- Top branches -->
    <path d="M75 186Q54 163 40 147" stroke="#3d2b1f" stroke-width="3.7" fill="none" stroke-linecap="round"/>
    <path d="M40 147Q28 133 19 121" stroke="#3d2b1f" stroke-width="2.3" fill="none" stroke-linecap="round"/>
    <path d="M19 121Q11 110 5 100" stroke="#3d2b1f" stroke-width="1.6" fill="none" stroke-linecap="round"/>
    <path d="M77 174Q92 153 104 139" stroke="#3d2b1f" stroke-width="3.2" fill="none" stroke-linecap="round"/>
    <path d="M78 161Q61 140 50 125" stroke="#3d2b1f" stroke-width="2.6" fill="none" stroke-linecap="round"/>
    <path d="M50 125Q38 113 29 103" stroke="#3d2b1f" stroke-width="1.9" fill="none" stroke-linecap="round"/>
    <!-- BLOSSOMS left tree -->
    <circle cx="76" cy="145" r="10" fill="#ff8da6" opacity=".62"/>
    <circle cx="64" cy="138" r="9" fill="#ffa0b4" opacity=".67"/>
    <circle cx="89" cy="137" r="10" fill="#ffb6c8" opacity=".57"/>
    <circle cx="76" cy="132" r="8" fill="#ffc0d0" opacity=".62"/>
    <circle cx="57" cy="133" r="7" fill="#ffa0b4" opacity=".62"/>
    <circle cx="96" cy="131" r="8" fill="#ff8da6" opacity=".57"/>
    <circle cx="82" cy="125" r="9" fill="#ffb6c8" opacity=".62"/>
    <circle cx="67" cy="120" r="7" fill="#ffc0d0" opacity=".57"/>
    <circle cx="93" cy="118" r="7" fill="#ffa0b4" opacity=".52"/>
    <circle cx="104" cy="138" r="7" fill="#ffb6c8" opacity=".52"/>
    <circle cx="112" cy="130" r="6" fill="#ff8da6" opacity=".52"/>
    <circle cx="40" cy="145" r="8" fill="#ffa0b4" opacity=".62"/>
    <circle cx="31" cy="137" r="7" fill="#ffb6c8" opacity=".57"/>
    <circle cx="47" cy="135" r="9" fill="#ff8da6" opacity=".57"/>
    <circle cx="22" cy="131" r="6" fill="#ffc0d0" opacity=".52"/>
    <circle cx="36" cy="127" r="7" fill="#ffa0b4" opacity=".57"/>
    <circle cx="20" cy="119" r="6" fill="#ffb6c8" opacity=".52"/>
    <circle cx="12" cy="111" r="7" fill="#ff8da6" opacity=".47"/>
    <circle cx="28" cy="107" r="6" fill="#ffc0d0" opacity=".47"/>
    <circle cx="5" cy="103" r="5" fill="#ffa0b4" opacity=".42"/>
    <circle cx="50" cy="123" r="6" fill="#ffc0d0" opacity=".52"/>
    <circle cx="41" cy="115" r="5" fill="#ffa0b4" opacity=".47"/>
    <circle cx="30" cy="103" r="6" fill="#ffb6c8" opacity=".42"/>
    <circle cx="142" cy="134" r="7" fill="#ffa0b4" opacity=".62"/>
    <circle cx="132" cy="126" r="8" fill="#ffb6c8" opacity=".57"/>
    <circle cx="150" cy="124" r="6" fill="#ff8da6" opacity=".62"/>
    <circle cx="138" cy="117" r="7" fill="#ffc0d0" opacity=".52"/>
    <circle cx="148" cy="170" r="6" fill="#ffb6c8" opacity=".52"/>
    <circle cx="158" cy="163" r="5" fill="#ff8da6" opacity=".52"/>
    <circle cx="168" cy="152" r="5" fill="#ffc0d0" opacity=".47"/>
    <circle cx="174" cy="144" r="4" fill="#ffa0b4" opacity=".47"/>
    <circle cx="23" cy="249" r="8" fill="#ffa0b4" opacity=".62"/>
    <circle cx="14" cy="241" r="9" fill="#ffb6c8" opacity=".57"/>
    <circle cx="33" cy="241" r="7" fill="#ff8da6" opacity=".62"/>
    <circle cx="6" cy="234" r="7" fill="#ffc0d0" opacity=".52"/>
    <circle cx="23" cy="234" r="6" fill="#ffa0b4" opacity=".57"/>
    <circle cx="9" cy="218" r="6" fill="#ffb6c8" opacity=".52"/>
    <circle cx="2" cy="210" r="6" fill="#ff8da6" opacity=".47"/>
    <circle cx="20" cy="207" r="5" fill="#ffc0d0" opacity=".42"/>
    <circle cx="6" cy="175" r="6" fill="#ffa0b4" opacity=".52"/>
    <circle cx="14" cy="167" r="7" fill="#ffb6c8" opacity=".50"/>
    <circle cx="2" cy="162" r="5" fill="#ff8da6" opacity=".47"/>
    <circle cx="30" cy="170" r="6" fill="#ffc0d0" opacity=".52"/>
    <circle cx="16" cy="153" r="6" fill="#ffa0b4" opacity=".47"/>
    <circle cx="4" cy="144" r="5" fill="#ffb6c8" opacity=".42"/>
    <circle cx="20" cy="186" r="6" fill="#ffa0b4" opacity=".52"/>
    <circle cx="9" cy="178" r="7" fill="#ffb6c8" opacity=".50"/>
    <!-- Scatter -->
    <circle cx="58" cy="148" r="3.5" fill="#ffd5de" opacity=".36"/>
    <circle cx="82" cy="112" r="3" fill="#ffd5de" opacity=".30"/>
    <circle cx="107" cy="122" r="3" fill="#ffd5de" opacity=".30"/>
    <circle cx="172" cy="148" r="3" fill="#ffd5de" opacity=".28"/>
    <circle cx="2" cy="226" r="3" fill="#ffd5de" opacity=".28"/>
  </g>

  <!-- === RIGHT FOREGROUND TREE (x=825) — blossomGlow for pink night luminance === -->
  <g class="rt" filter="url(#blossomGlow)">
    <path d="M825 480Q828 408 832 355Q836 316 829 282Q825 254 832 228Q834 207 828 184Q830 166 824 148" stroke="#2d1f14" stroke-width="13" fill="none" stroke-linecap="round"/>
    <path d="M827 480Q830 408 834 355Q838 316 831 282Q827 254 834 228Q836 207 830 184" stroke="#3d2b1f" stroke-width="8.5" fill="none" stroke-linecap="round"/>
    <!-- Branch low-right -->
    <path d="M831 292Q857 268 878 251" stroke="#3d2b1f" stroke-width="7.5" fill="none" stroke-linecap="round"/>
    <path d="M878 251Q895 238 903 228" stroke="#3d2b1f" stroke-width="4.5" fill="none" stroke-linecap="round"/>
    <path d="M878 251Q885 234 891 218" stroke="#3d2b1f" stroke-width="3.2" fill="none" stroke-linecap="round"/>
    <!-- Branch low-left -->
    <path d="M829 272Q800 248 777 234" stroke="#3d2b1f" stroke-width="5.8" fill="none" stroke-linecap="round"/>
    <path d="M777 234Q758 222 746 213" stroke="#3d2b1f" stroke-width="3.7" fill="none" stroke-linecap="round"/>
    <path d="M746 213Q733 205 725 198" stroke="#3d2b1f" stroke-width="2.3" fill="none" stroke-linecap="round"/>
    <!-- Branch mid-right -->
    <path d="M831 248Q858 223 880 207" stroke="#3d2b1f" stroke-width="5.3" fill="none" stroke-linecap="round"/>
    <path d="M880 207Q898 193 907 183" stroke="#3d2b1f" stroke-width="3.2" fill="none" stroke-linecap="round"/>
    <!-- Branch mid-left -->
    <path d="M829 234Q802 210 781 195" stroke="#3d2b1f" stroke-width="4.8" fill="none" stroke-linecap="round"/>
    <path d="M781 195Q762 183 752 172" stroke="#3d2b1f" stroke-width="3.1" fill="none" stroke-linecap="round"/>
    <path d="M752 172Q739 162 731 154" stroke="#3d2b1f" stroke-width="2.1" fill="none" stroke-linecap="round"/>
    <!-- Branch upper-right -->
    <path d="M829 214Q854 188 872 172" stroke="#3d2b1f" stroke-width="4.2" fill="none" stroke-linecap="round"/>
    <path d="M872 172Q886 158 894 146" stroke="#3d2b1f" stroke-width="2.7" fill="none" stroke-linecap="round"/>
    <path d="M894 146Q902 136 907 126" stroke="#3d2b1f" stroke-width="1.9" fill="none" stroke-linecap="round"/>
    <!-- Branch upper-left -->
    <path d="M827 200Q802 175 784 159" stroke="#3d2b1f" stroke-width="4" fill="none" stroke-linecap="round"/>
    <path d="M784 159Q769 146 759 136" stroke="#3d2b1f" stroke-width="2.6" fill="none" stroke-linecap="round"/>
    <!-- Top branches -->
    <path d="M827 186Q848 163 862 147" stroke="#3d2b1f" stroke-width="3.7" fill="none" stroke-linecap="round"/>
    <path d="M862 147Q874 133 882 121" stroke="#3d2b1f" stroke-width="2.3" fill="none" stroke-linecap="round"/>
    <path d="M826 174Q810 153 798 139" stroke="#3d2b1f" stroke-width="3.2" fill="none" stroke-linecap="round"/>
    <path d="M824 161Q841 140 852 125" stroke="#3d2b1f" stroke-width="2.6" fill="none" stroke-linecap="round"/>
    <path d="M852 125Q862 113 870 103" stroke="#3d2b1f" stroke-width="1.9" fill="none" stroke-linecap="round"/>
    <!-- BLOSSOMS right tree -->
    <circle cx="826" cy="145" r="10" fill="#ff8da6" opacity=".62"/>
    <circle cx="814" cy="138" r="9" fill="#ffa0b4" opacity=".67"/>
    <circle cx="838" cy="137" r="10" fill="#ffb6c8" opacity=".57"/>
    <circle cx="826" cy="132" r="8" fill="#ffc0d0" opacity=".62"/>
    <circle cx="807" cy="133" r="7" fill="#ffa0b4" opacity=".62"/>
    <circle cx="844" cy="131" r="8" fill="#ff8da6" opacity=".57"/>
    <circle cx="832" cy="125" r="9" fill="#ffb6c8" opacity=".62"/>
    <circle cx="817" cy="120" r="7" fill="#ffc0d0" opacity=".57"/>
    <circle cx="842" cy="118" r="7" fill="#ffa0b4" opacity=".52"/>
    <circle cx="797" cy="138" r="7" fill="#ffb6c8" opacity=".52"/>
    <circle cx="788" cy="130" r="6" fill="#ff8da6" opacity=".52"/>
    <circle cx="860" cy="145" r="8" fill="#ffa0b4" opacity=".62"/>
    <circle cx="870" cy="137" r="7" fill="#ffb6c8" opacity=".57"/>
    <circle cx="852" cy="135" r="9" fill="#ff8da6" opacity=".57"/>
    <circle cx="878" cy="131" r="6" fill="#ffc0d0" opacity=".52"/>
    <circle cx="864" cy="127" r="7" fill="#ffa0b4" opacity=".57"/>
    <circle cx="880" cy="119" r="6" fill="#ffb6c8" opacity=".52"/>
    <circle cx="888" cy="111" r="7" fill="#ff8da6" opacity=".47"/>
    <circle cx="872" cy="107" r="6" fill="#ffc0d0" opacity=".47"/>
    <circle cx="895" cy="103" r="5" fill="#ffa0b4" opacity=".42"/>
    <circle cx="851" cy="123" r="6" fill="#ffc0d0" opacity=".52"/>
    <circle cx="860" cy="115" r="5" fill="#ffa0b4" opacity=".47"/>
    <circle cx="870" cy="103" r="6" fill="#ffb6c8" opacity=".42"/>
    <circle cx="759" cy="134" r="7" fill="#ffa0b4" opacity=".62"/>
    <circle cx="768" cy="126" r="8" fill="#ffb6c8" opacity=".57"/>
    <circle cx="751" cy="124" r="6" fill="#ff8da6" opacity=".62"/>
    <circle cx="762" cy="117" r="7" fill="#ffc0d0" opacity=".52"/>
    <circle cx="752" cy="170" r="6" fill="#ffb6c8" opacity=".52"/>
    <circle cx="742" cy="163" r="5" fill="#ff8da6" opacity=".52"/>
    <circle cx="732" cy="152" r="5" fill="#ffc0d0" opacity=".47"/>
    <circle cx="726" cy="144" r="4" fill="#ffa0b4" opacity=".47"/>
    <circle cx="877" cy="249" r="8" fill="#ffa0b4" opacity=".62"/>
    <circle cx="886" cy="241" r="9" fill="#ffb6c8" opacity=".57"/>
    <circle cx="867" cy="241" r="7" fill="#ff8da6" opacity=".62"/>
    <circle cx="894" cy="234" r="7" fill="#ffc0d0" opacity=".52"/>
    <circle cx="877" cy="234" r="6" fill="#ffa0b4" opacity=".57"/>
    <circle cx="891" cy="218" r="6" fill="#ffb6c8" opacity=".52"/>
    <circle cx="898" cy="210" r="6" fill="#ff8da6" opacity=".47"/>
    <circle cx="880" cy="207" r="5" fill="#ffc0d0" opacity=".42"/>
    <circle cx="894" cy="175" r="6" fill="#ffa0b4" opacity=".52"/>
    <circle cx="886" cy="167" r="7" fill="#ffb6c8" opacity=".50"/>
    <circle cx="898" cy="162" r="5" fill="#ff8da6" opacity=".47"/>
    <circle cx="870" cy="170" r="6" fill="#ffc0d0" opacity=".52"/>
    <circle cx="884" cy="153" r="6" fill="#ffa0b4" opacity=".47"/>
    <circle cx="896" cy="144" r="5" fill="#ffb6c8" opacity=".42"/>
    <!-- Scatter -->
    <circle cx="842" cy="148" r="3.5" fill="#ffd5de" opacity=".36"/>
    <circle cx="818" cy="112" r="3" fill="#ffd5de" opacity=".30"/>
    <circle cx="793" cy="122" r="3" fill="#ffd5de" opacity=".30"/>
    <circle cx="728" cy="148" r="3" fill="#ffd5de" opacity=".28"/>
    <circle cx="898" cy="226" r="3" fill="#ffd5de" opacity=".28"/>
  </g>

  <!-- Torii gate -->
  <g opacity="0.17">
    <rect x="421" y="295" width="6.5" height="55" rx="1" fill="#fecdd3"/>
    <rect x="473" y="295" width="6.5" height="55" rx="1" fill="#fecdd3"/>
    <path d="M413 295Q450 284 487 295" stroke="#fecdd3" stroke-width="5.5" fill="none" stroke-linecap="round"/>
    <rect x="416" y="305" width="69" height="3.5" rx="1.2" fill="#fecdd3"/>
    <rect x="423" y="315" width="55" height="2" rx="1" fill="#fecdd3" opacity=".55"/>
  </g>

  <!-- Stepping stones -->
  <ellipse cx="338" cy="342" rx="15" ry="4.5" fill="#1a2640" opacity=".48"/>
  <ellipse cx="370" cy="348" rx="13" ry="4" fill="#1a2640" opacity=".42"/>
  <ellipse cx="400" cy="340" rx="14" ry="4.5" fill="#1a2640" opacity=".36"/>
  <ellipse cx="428" cy="346" rx="12" ry="4" fill="#1a2640" opacity=".32"/>
  <ellipse cx="454" cy="341" rx="14" ry="4.5" fill="#1a2640" opacity=".30"/>
  <ellipse cx="480" cy="347" rx="12" ry="3.8" fill="#1a2640" opacity=".28"/>

  <!-- Ground -->
  <path d="M0 333Q155 322 305 330Q455 320 605 328Q755 319 900 327L900 348H0Z" fill="#08081a" opacity=".55"/>

  <!-- Water -->
  <rect x="0" y="340" width="900" height="140" fill="url(#waterGrad)" opacity=".88"/>
  <g filter="url(#waterDistort)">
    <path d="M0 353Q105 346 210 354Q315 347 420 353Q525 346 630 352Q735 346 840 353Q870 349 900 352" fill="none" stroke="#fecdd3" stroke-width=".55" class="w1"/>
    <path d="M0 366Q125 360 255 367Q385 360 515 366Q645 360 775 366Q840 362 900 365" fill="none" stroke="#fecdd3" stroke-width=".38" class="w2"/>
    <path d="M0 379Q135 374 270 380Q405 374 540 379Q675 373 810 379Q852 375 900 378" fill="none" stroke="#fecdd3" stroke-width=".25" opacity=".07"/>
    <!-- Moon reflection -->
    <ellipse cx="738" cy="362" rx="25" ry="3.5" fill="#fecdd3" opacity=".09" class="w1"/>
    <ellipse cx="738" cy="378" rx="18" ry="3" fill="#fecdd3" opacity=".06" class="w2"/>
    <ellipse cx="738" cy="394" rx="11" ry="2.5" fill="#fecdd3" opacity=".03"/>
  </g>

  <!-- Lanterns -->
  <g opacity=".40">
    <rect x="166" y="304" width="10" height="18" rx="3" fill="#ffb6c8" class="la"/>
    <line x1="171" y1="300" x2="171" y2="304" stroke="#3d2b1f" stroke-width="1.1"/>
    <rect x="167" y="322" width="8" height="2.5" rx="1.2" fill="#3d2b1f" opacity=".5"/>
  </g>
  <g opacity=".30">
    <rect x="206" y="312" width="9" height="16" rx="2.5" fill="#ffb6c8" class="lb"/>
    <line x1="210.5" y1="308" x2="210.5" y2="312" stroke="#3d2b1f" stroke-width=".9"/>
    <rect x="207" y="328" width="7" height="2" rx="1" fill="#3d2b1f" opacity=".5"/>
  </g>
  <g opacity=".22">
    <rect x="246" y="319" width="8" height="14" rx="2" fill="#ffb6c8" class="lc"/>
    <line x1="250" y1="315" x2="250" y2="319" stroke="#3d2b1f" stroke-width=".8"/>
    <rect x="247" y="333" width="6" height="1.8" rx="1" fill="#3d2b1f" opacity=".5"/>
  </g>

  <!-- Floating petals -->
  <ellipse cx="188" cy="108" rx="3.5" ry="2.0" fill="#ffb6c8" opacity=".52" class="p1"/>
  <ellipse cx="298" cy="138" rx="3.2" ry="1.9" fill="#ffa0b4" opacity=".46" class="p2"/>
  <ellipse cx="442" cy="93" rx="3.5" ry="2.0" fill="#ffc0d0" opacity=".52" class="p3"/>
  <ellipse cx="282" cy="183" rx="2.6" ry="1.6" fill="#ffb6c8" opacity=".36" class="p4"/>
  <ellipse cx="600" cy="120" rx="3.1" ry="1.8" fill="#ffa0b4" opacity=".42" class="p5"/>
  <ellipse cx="450" cy="163" rx="2.9" ry="1.7" fill="#ffc0d0" opacity=".36" class="p6"/>
  <ellipse cx="150" cy="153" rx="2.6" ry="1.5" fill="#ffb6c8" opacity=".32" class="p1d"/>
  <ellipse cx="564" cy="170" rx="3.1" ry="1.8" fill="#ffa0b4" opacity=".32" class="p2d"/>
  <ellipse cx="690" cy="140" rx="2.6" ry="1.5" fill="#ffc0d0" opacity=".27" class="p3d"/>
  <ellipse cx="320" cy="203" rx="2.1" ry="1.3" fill="#ffb6c8" opacity=".27" class="p4d"/>
  <ellipse cx="480" cy="116" rx="2.9" ry="1.7" fill="#ffa0b4" opacity=".42" class="p5d"/>
  <ellipse cx="235" cy="130" rx="2.1" ry="1.3" fill="#ffc0d0" opacity=".32" class="p6d"/>
  <ellipse cx="657" cy="186" rx="2.6" ry="1.5" fill="#ffb6c8" opacity=".27" class="p1e"/>
  <ellipse cx="544" cy="200" rx="2.1" ry="1.3" fill="#ffa0b4" opacity=".22" class="p2e"/>
  <ellipse cx="370" cy="126" rx="3.1" ry="1.8" fill="#ffc0d0" opacity=".37" class="p3e"/>
  <ellipse cx="514" cy="156" rx="2.6" ry="1.5" fill="#ffb6c8" opacity=".32" class="p6"/>
  <ellipse cx="410" cy="186" rx="2.1" ry="1.3" fill="#ffa0b4" opacity=".27" class="p4"/>
  <ellipse cx="624" cy="103" rx="2.9" ry="1.7" fill="#ffc0d0" opacity=".37" class="p1d"/>

  <!-- Text -->
  <text x="450" y="178" text-anchor="middle" font-family="Georgia,'Times New Roman',serif" font-size="46" fill="#ffe4e6" letter-spacing="8" class="nt">Patricio García</text>
  <text x="450" y="211" text-anchor="middle" font-family="'Courier New',monospace" font-size="13" fill="#fecdd3" letter-spacing="5" class="st">SYSTEMS ENGINEER  ·  FULL STACK DEVELOPER</text>
  <!-- Ornament -->
  <line x1="288" y1="226" x2="408" y2="226" stroke="#fecdd3" stroke-width=".5" opacity=".23"/>
  <g transform="translate(450,226)" opacity=".44">
    <ellipse cx="0" cy="-5.8" rx="2.9" ry="4.4" fill="#ffb6c8" transform="rotate(0)"/>
    <ellipse cx="0" cy="-5.8" rx="2.9" ry="4.4" fill="#ffb6c8" transform="rotate(72)"/>
    <ellipse cx="0" cy="-5.8" rx="2.9" ry="4.4" fill="#ffb6c8" transform="rotate(144)"/>
    <ellipse cx="0" cy="-5.8" rx="2.9" ry="4.4" fill="#ffb6c8" transform="rotate(216)"/>
    <ellipse cx="0" cy="-5.8" rx="2.9" ry="4.4" fill="#ffb6c8" transform="rotate(288)"/>
    <circle cx="0" cy="0" r="2.1" fill="#ffd5de"/>
  </g>
  <line x1="492" y1="226" x2="612" y2="226" stroke="#fecdd3" stroke-width=".5" opacity=".23"/>
  <!-- Quote -->
  <text x="450" y="258" text-anchor="middle" font-family="Georgia,'Times New Roman',serif" font-size="11" fill="#fecdd3" font-style="italic" opacity=".28" letter-spacing="1">花は桜木、人は武士 — Among flowers, the cherry blossom; among men, the warrior</text>
</svg>
