<svg xmlns="http://www.w3.org/2000/svg" viewBox="0 0 1200 360" width="100%">
  <defs>
    <!-- Background gradient -->
    <linearGradient id="bgGrad" x1="0%" y1="0%" x2="100%" y2="100%">
      <stop offset="0%" stop-color="#0d1117"/>
      <stop offset="100%" stop-color="#161b22"/>
    </linearGradient>
    <!-- Glow effects -->
    <filter id="glow" x="-20%" y="-20%" width="140%" height="140%">
      <feGaussianBlur stdDeviation="4" result="blur"/>
      <feMerge>
        <feMergeNode in="blur"/>
        <feMergeNode in="blur"/>
        <feMergeNode in="SourceGraphic"/>
      </feMerge>
    </filter>
    <filter id="softGlow" x="-20%" y="-20%" width="140%" height="140%">
      <feGaussianBlur stdDeviation="2.5" result="blur"/>
      <feMerge>
        <feMergeNode in="blur"/>
        <feMergeNode in="SourceGraphic"/>
      </feMerge>
    </filter>
    <!-- Connection gradient -->
    <linearGradient id="connGrad" x1="0%" y1="0%" x2="100%" y2="0%">
      <stop offset="0%" stop-color="#39d0d8" stop-opacity="0.6"/>
      <stop offset="100%" stop-color="#58a6ff" stop-opacity="0.6"/>
    </linearGradient>
  </defs>

  <!-- Main background -->
  <rect width="1200" height="360" rx="12" fill="url(#bgGrad)"/>

  <!-- Blueprint dot grid background -->
  <g opacity="0.035">
    <pattern id="dotGrid" width="24" height="24" patternUnits="userSpaceOnUse">
      <circle cx="1" cy="1" r="0.8" fill="#39d0d8"/>
    </pattern>
    <rect width="1200" height="360" fill="url(#dotGrid)"/>
  </g>

  <!-- Floating code particles -->
  <text x="180" y="120" font-family="monospace" font-size="14" fill="#39d0d8" opacity="0.06">&lt;/&gt;</text>
  <text x="720" y="90" font-family="monospace" font-size="16" fill="#58a6ff" opacity="0.05">{ }</text>
  <text x="350" y="310" font-family="monospace" font-size="12" fill="#a371f7" opacity="0.06">#</text>
  <text x="950" y="280" font-family="monospace" font-size="13" fill="#39d0d8" opacity="0.05">$</text>
  <text x="520" y="130" font-family="monospace" font-size="11" fill="#8b949e" opacity="0.04">//</text>
  <text x="80" y="260" font-family="monospace" font-size="10" fill="#8b949e" opacity="0.04">/* */</text>
  <text x="1100" y="150" font-family="monospace" font-size="14" fill="#58a6ff" opacity="0.05">[ ]</text>
  <text x="280" y="80" font-family="monospace" font-size="12" fill="#a371f7" opacity="0.04">=&gt;</text>

  <!-- Decorative corner brackets -->
  <g stroke="#39d0d8" stroke-width="1.5" fill="none" opacity="0.12">
    <path d="M 20 20 L 50 20 L 50 25 L 25 25 L 25 50 L 20 50 Z"/>
    <path d="M 1180 20 L 1150 20 L 1150 25 L 1175 25 L 1175 50 L 1180 50 Z"/>
    <path d="M 20 340 L 50 340 L 50 335 L 25 335 L 25 310 L 20 310 Z"/>
    <path d="M 1180 340 L 1150 340 L 1150 335 L 1175 335 L 1175 310 L 1180 310 Z"/>
  </g>

  <!-- Status indicators -->
  <g>
    <circle cx="1120" cy="48" r="4" fill="#3fb950">
      <animate attributeName="opacity" values="1;0.4;1" dur="2s" repeatCount="indefinite"/>
    </circle>
    <text x="1132" y="52" font-family="monospace" font-size="10" fill="#3fb950" opacity="0.8">ONLINE</text>
  </g>
  <g>
    <circle cx="1120" cy="68" r="4" fill="#d29922">
      <animate attributeName="opacity" values="0.4;1;0.4" dur="1.5s" repeatCount="indefinite"/>
    </circle>
    <text x="1132" y="72" font-family="monospace" font-size="10" fill="#d29922" opacity="0.8">BUILDING</text>
  </g>

  <!-- Window title bar -->
  <rect width="1200" height="36" rx="12" fill="#010409"/>
  <rect x="0" y="24" width="1200" height="12" fill="#010409"/>
  <circle cx="22" cy="18" r="6" fill="#ff5f56"/>
  <circle cx="42" cy="18" r="6" fill="#ffbd2e"/>
  <circle cx="62" cy="18" r="6" fill="#27c93f"/>

  <!-- Tabs -->
  <rect x="100" y="8" width="140" height="28" rx="6" fill="#161b22"/>
  <text x="115" y="26" font-family="monospace" font-size="11" fill="#8b949e">README.md</text>
  <rect x="248" y="8" width="120" height="28" rx="6" fill="#0d1117"/>
  <text x="263" y="26" font-family="monospace" font-size="11" fill="#c9d1d9">profile.ts</text>
  <rect x="376" y="8" width="120" height="28" rx="6" fill="#0d1117"/>
  <text x="391" y="26" font-family="monospace" font-size="11" fill="#c9d1d9">about.py</text>

  <!-- Sidebar file tree (left) -->
  <rect x="0" y="36" width="52" height="324" fill="#010409"/>
  <g font-family="monospace" font-size="13" fill="#7d8590">
    <text x="18" y="64">1</text>
    <text x="18" y="88">2</text>
    <text x="18" y="112">3</text>
    <text x="18" y="136">4</text>
    <text x="18" y="160">5</text>
    <text x="18" y="184">6</text>
    <text x="18" y="208">7</text>
    <text x="18" y="232">8</text>
    <text x="18" y="256">9</text>
    <text x="14" y="280">10</text>
    <text x="14" y="304">11</text>
    <text x="14" y="328">12</text>
  </g>

  <!-- File tree sidebar icons -->
  <g font-family="monospace" font-size="9" fill="#8b949e" opacity="0.5">
    <text x="8" y="64">│</text>
    <text x="8" y="88">│</text>
    <text x="8" y="112">│</text>
    <text x="8" y="136">│</text>
    <text x="8" y="160">│</text>
    <text x="8" y="184">│</text>
    <text x="8" y="208">│</text>
    <text x="8" y="232">│</text>
    <text x="8" y="256">│</text>
    <text x="8" y="280">│</text>
    <text x="8" y="304">│</text>
    <text x="8" y="328">│</text>
  </g>

  <!-- Code line 1: import -->
  <text x="76" y="68" font-family="monospace" font-size="15" fill="#ff7b72">import</text>
  <text x="146" y="68" font-family="monospace" font-size="15" fill="#c9d1d9"> { Engineer } </text>
  <text x="264" y="68" font-family="monospace" font-size="15" fill="#ff7b72">from</text>
  <text x="308" y="68" font-family="monospace" font-size="15" fill="#a5d6ff">"@universe/talent"</text>
  <text x="474" y="68" font-family="monospace" font-size="15" fill="#8b9490">// always learning</text>

  <!-- Code line 2: blank -->

  <!-- Code line 3: const profile -->
  <text x="76" y="116" font-family="monospace" font-size="15" fill="#ff7b72">const</text>
  <text x="118" y="116" font-family="monospace" font-size="15" fill="#79c0ff">profile</text>
  <text x="178" y="116" font-family="monospace" font-size="15" fill="#ff7b72">=</text>
  <text x="198" y="116" font-family="monospace" font-size="15" fill="#c9d1d9"> {</text>

  <!-- Code line 4: name -->
  <text x="108" y="140" font-family="monospace" font-size="15" fill="#79c0ff">name</text>
  <text x="148" y="140" font-family="monospace" font-size="15" fill="#c9d1d9">: </text>
  <text x="162" y="140" font-family="monospace" font-size="15" fill="#a5d6ff">"Patricio García Pérez Vela"</text>
  <text x="414" y="140" font-family="monospace" font-size="15" fill="#c9d1d9">,</text>

  <!-- Code line 5: role -->
  <text x="108" y="164" font-family="monospace" font-size="15" fill="#79c0ff">role</text>
  <text x="144" y="164" font-family="monospace" font-size="15" fill="#c9d1d9">: </text>
  <text x="158" y="164" font-family="monospace" font-size="15" fill="#a5d6ff">"Software Engineer"</text>
  <text x="344" y="164" font-family="monospace" font-size="15" fill="#c9d1d9">,</text>

  <!-- Code line 6: focus -->
  <text x="108" y="188" font-family="monospace" font-size="15" fill="#79c0ff">focus</text>
  <text x="156" y="188" font-family="monospace" font-size="15" fill="#c9d1d9">: [</text>
  <text x="176" y="188" font-family="monospace" font-size="15" fill="#a5d6ff">"AI Systems"</text>
  <text x="282" y="188" font-family="monospace" font-size="15" fill="#c9d1d9">, </text>
  <text x="298" y="188" font-family="monospace" font-size="15" fill="#a5d6ff">"Full-Stack"</text>
  <text x="402" y="188" font-family="monospace" font-size="15" fill="#c9d1d9">, </text>
  <text x="418" y="188" font-family="monospace" font-size="15" fill="#a5d6ff">"NLP"</text>
  <text x="470" y="188" font-family="monospace" font-size="15" fill="#c9d1d9">],</text>

  <!-- Code line 7: location -->
  <text x="108" y="212" font-family="monospace" font-size="15" fill="#79c0ff">location</text>
  <text x="180" y="212" font-family="monospace" font-size="15" fill="#c9d1d9">: </text>
  <text x="194" y="212" font-family="monospace" font-size="15" fill="#a5d6ff">"Guanajuato, México"</text>
  <text x="374" y="212" font-family="monospace" font-size="15" fill="#c9d1d9">,</text>

  <!-- Code line 8: status -->
  <text x="108" y="236" font-family="monospace" font-size="15" fill="#79c0ff">status</text>
  <text x="160" y="236" font-family="monospace" font-size="15" fill="#c9d1d9">: </text>
  <text x="174" y="236" font-family="monospace" font-size="15" fill="#a5d6ff">"Building sovereign AI"</text>

  <!-- Code line 9: closing brace -->
  <text x="76" y="260" font-family="monospace" font-size="15" fill="#c9d1d9">}</text>

  <!-- Code line 10: export -->
  <text x="76" y="284" font-family="monospace" font-size="15" fill="#ff7b72">export default</text>
  <text x="194" y="284" font-family="monospace" font-size="15" fill="#79c0ff">profile</text>

  <!-- Code line 11: comment -->
  <text x="76" y="308" font-family="monospace" font-size="14" fill="#8b9490">// Hay que dar un paso a la vez. Solo uno a la vez.</text>

  <!-- Code line 12: blank -->

  <!-- Connection lines from code to terminal -->
  <g fill="none" stroke="url(#connGrad)" stroke-width="1" opacity="0.25" stroke-dasharray="4 4">
    <path d="M 520 180 L 700 180 L 720 160 L 780 160"/>
    <path d="M 480 220 L 680 220 L 700 200 L 780 200"/>
  </g>

  <!-- Right side: decorative terminal/code block with glow -->
  <rect x="780" y="56" width="380" height="260" rx="8" fill="#010409" stroke="#30363d" stroke-width="1"/>
  <!-- Terminal glow behind -->
  <rect x="778" y="54" width="384" height="264" rx="10" fill="#39d0d8" opacity="0.04" filter="url(#glow)"/>
  <rect x="780" y="56" width="380" height="28" rx="8" fill="#161b22"/>
  <rect x="780" y="76" width="380" height="8" fill="#161b22"/>
  <text x="800" y="74" font-family="monospace" font-size="10" fill="#8b949e">terminal — zsh</text>

  <!-- Terminal file tree sidebar -->
  <rect x="780" y="84" width="60" height="232" fill="#010409" opacity="0.5"/>
  <text x="790" y="104" font-family="monospace" font-size="8" fill="#8b949e" opacity="0.6">📁 src</text>
  <text x="798" y="118" font-family="monospace" font-size="8" fill="#8b949e" opacity="0.5">  📄 main</text>
  <text x="798" y="132" font-family="monospace" font-size="8" fill="#8b949e" opacity="0.5">  📄 lib</text>
  <text x="790" y="150" font-family="monospace" font-size="8" fill="#8b949e" opacity="0.6">📁 assets</text>
  <text x="790" y="168" font-family="monospace" font-size="8" fill="#8b949e" opacity="0.6">📁 config</text>

  <!-- Terminal content -->
  <text x="856" y="112" font-family="monospace" font-size="12" fill="#7ee787">$ </text>
  <text x="874" y="112" font-family="monospace" font-size="12" fill="#c9d1d9">whoami</text>
  <text x="856" y="132" font-family="monospace" font-size="12" fill="#c9d1d9">p5patricio</text>

  <text x="856" y="158" font-family="monospace" font-size="12" fill="#7ee787">$ </text>
  <text x="874" y="158" font-family="monospace" font-size="12" fill="#c9d1d9">cat stack.txt</text>
  <text x="856" y="178" font-family="monospace" font-size="12" fill="#79c0ff">Python</text>
  <text x="906" y="178" font-family="monospace" font-size="12" fill="#c9d1d9"> · </text>
  <text x="926" y="178" font-family="monospace" font-size="12" fill="#79c0ff">TypeScript</text>
  <text x="856" y="194" font-family="monospace" font-size="12" fill="#79c0ff">Go</text>
  <text x="886" y="194" font-family="monospace" font-size="12" fill="#c9d1d9"> · </text>
  <text x="906" y="194" font-family="monospace" font-size="12" fill="#79c0ff">Node.js</text>
  <text x="856" y="210" font-family="monospace" font-size="12" fill="#79c0ff">FastAPI</text>
  <text x="906" y="210" font-family="monospace" font-size="12" fill="#c9d1d9"> · </text>
  <text x="926" y="210" font-family="monospace" font-size="12" fill="#79c0ff">Next.js</text>
  <text x="856" y="226" font-family="monospace" font-size="12" fill="#79c0ff">Whisper</text>
  <text x="916" y="226" font-family="monospace" font-size="12" fill="#c9d1d9"> · </text>
  <text x="936" y="226" font-family="monospace" font-size="12" fill="#79c0ff">Ollama</text>

  <text x="856" y="252" font-family="monospace" font-size="12" fill="#7ee787">$ </text>
  <text x="874" y="252" font-family="monospace" font-size="12" fill="#c9d1d9">uptime</text>
  <text x="856" y="272" font-family="monospace" font-size="12" fill="#c9d1d9">always building...</text>

  <text x="856" y="298" font-family="monospace" font-size="12" fill="#7ee787">$ </text>
  <text x="874" y="298" font-family="monospace" font-size="12" fill="#c9d1d9">echo </text>
  <text x="914" y="298" font-family="monospace" font-size="12" fill="#a5d6ff">"The end justifies the means."</text>

  <!-- Blinking cursor -->
  <rect x="914" y="306" width="8" height="14" fill="#39d0d8">
    <animate attributeName="opacity" values="1;0;1" dur="1s" repeatCount="indefinite"/>
  </rect>

  <!-- Decorative circuit lines on bottom edge -->
  <path d="M 0 340 L 120 340 L 140 360 L 200 360" fill="none" stroke="#21262d" stroke-width="2"/>
  <path d="M 1200 340 L 1080 340 L 1060 360 L 1000 360" fill="none" stroke="#21262d" stroke-width="2"/>
  <circle cx="140" cy="360" r="2.5" fill="#39d0d8" opacity="0.6">
    <animate attributeName="opacity" values="0.3;0.8;0.3" dur="2s" repeatCount="indefinite"/>
  </circle>
  <circle cx="1060" cy="360" r="2.5" fill="#39d0d8" opacity="0.6">
    <animate attributeName="opacity" values="0.3;0.8;0.3" dur="2s" repeatCount="indefinite" begin="1s"/>
  </circle>

  <!-- Bottom status strip inside header -->
  <rect x="0" y="340" width="1200" height="20" rx="12" fill="#010409" opacity="0.6"/>
  <text x="20" y="354" font-family="monospace" font-size="9" fill="#8b949e" opacity="0.5">UTF-8</text>
  <text x="70" y="354" font-family="monospace" font-size="9" fill="#8b949e" opacity="0.5">TypeScript</text>
  <text x="1120" y="354" font-family="monospace" font-size="9" fill="#8b949e" opacity="0.5">Ln 1, Col 1</text>
</svg>